<svg width="153" height="58" viewBox="0 0 153 58" fill="none" xmlns="http://www.w3.org/2000/svg">
<path d="M34.4203 0.970103C31.453 1.01919 28.4698 1.12923 25.6183 1.49307C22.7361 1.79972 20.0124 2.33056 17.4286 2.94321C14.8826 3.58884 12.4911 4.35231 10.4494 5.27338C9.39262 5.71384 8.48117 6.21972 7.54457 6.70518C6.71737 7.2309 5.79517 7.72578 5.12036 8.29269C3.57531 9.37267 2.56083 10.5765 1.68604 11.7784C1.39828 12.4061 0.954567 12.991 0.815571 13.6497L0.550587 14.6177C0.481933 14.9333 0.50805 15.2157 0.484109 15.5159L0.466104 15.96L0.456351 16.2258L0.473279 16.4479L0.539325 17.3357L0.64807 19.1127L0.788617 22.6648C0.87097 25.0328 1.01607 27.4011 0.965892 29.7687C0.945183 30.9259 0.98401 32.2092 1.48109 33.4269C2.0319 34.6432 2.77613 35.8571 4.02325 36.9812C4.28939 37.2714 4.61991 37.547 4.96658 37.8196C5.30788 38.0929 5.6188 38.3755 5.99051 38.6419C6.76973 39.1646 7.51317 39.7012 8.43549 40.1814C10.1746 41.1767 12.2446 42.062 14.5255 42.8284C16.7832 43.6089 19.2822 44.2588 21.9132 44.7927C24.5497 45.3336 27.3787 45.6672 30.2468 45.9188L28.168 45.0654L28.373 45.7543C28.4222 45.9851 28.5699 46.2116 28.5404 46.4453C28.4991 46.9089 28.6495 47.3731 28.4721 47.8362L28.2885 48.5323C28.2571 48.7652 28.113 48.9938 27.9885 49.2233L27.6203 49.9117C27.5281 50.1436 27.2908 50.3641 27.1269 50.5895L26.5885 51.264C26.4372 51.4926 26.1532 51.7051 25.9373 51.9256C25.4608 52.3595 25.0667 52.8085 24.4719 53.2232C23.9004 53.6411 23.4185 54.0782 22.7789 54.4825L20.8977 55.7029L17.7963 57.7173L23.1749 57.3826L26.088 57.2012C27.0584 57.1412 28.0215 57.0406 28.9883 56.9619C29.9587 56.8894 30.911 56.7637 31.8687 56.6583C32.8318 56.56 33.7733 56.421 34.7184 56.2835C35.6671 56.1578 36.5978 55.9984 37.5176 55.8296C38.4519 55.6749 39.3592 55.4896 40.2539 55.2894C41.163 55.1064 42.0379 54.8874 42.8984 54.6582C43.7787 54.4454 44.6051 54.1903 45.4262 53.9335C46.2724 53.6909 47.0324 53.3964 47.8122 53.1137C48.6135 52.8421 49.2909 52.5097 50.024 52.2042C50.7625 51.8987 51.3683 51.5411 52.0422 51.2111C52.691 50.8709 53.2448 50.4998 53.847 50.1446C54.4008 49.7758 54.9026 49.3921 55.4295 49.0162L56.7861 47.8387L57.9259 46.6243L58.8686 45.3843L58.8704 45.3828L56.5451 46.1347L74.0544 46.0784L91.5658 46.098L109.077 46.1308L117.831 46.1472C119.292 46.1422 120.906 46.1134 122.424 46.0522C123.952 45.9504 125.495 45.8752 126.979 45.6826C129.988 45.3732 132.848 44.8327 135.518 44.1687C138.246 43.5362 140.627 42.6617 142.848 41.7366C145.025 40.7816 146.857 39.6885 148.416 38.5241C149.846 37.3296 151.091 36.0789 151.756 34.7511C151.984 34.4305 152.083 34.0774 152.211 33.733C152.317 33.394 152.5 33.0248 152.531 32.7106L152.654 31.757L152.686 31.5179L152.696 31.3513L152.697 31.2317L152.703 30.754L152.753 26.9311L152.851 19.2855C152.848 18.0008 152.956 16.779 152.739 15.3675C152.391 14.0089 151.823 12.64 150.631 11.3605C150.384 11.0328 150.08 10.715 149.721 10.408C149.378 10.098 149.058 9.78172 148.688 9.47703C147.867 8.88848 147.116 8.27752 146.127 7.73687C144.3 6.60996 142.045 5.61996 139.578 4.75669C137.142 3.86694 134.317 3.20417 131.434 2.63894C128.487 2.1032 125.472 1.75177 122.147 1.55878C121.343 1.5075 120.67 1.50983 119.923 1.48221L118.832 1.45182L118.556 1.44383L118.146 1.43927L117.598 1.43658L113.221 1.41195L104.465 1.36267L34.4203 0.970103ZM34.4306 3.69915L104.475 3.89155L113.23 3.91579L117.607 3.92793L118.155 3.92984L118.292 3.93031L118.36 3.92976C118.415 3.93074 118.118 3.92658 118.275 3.92869L118.55 3.9351L119.642 3.96316C120.351 3.98752 121.15 3.9864 121.779 4.03081C124.204 4.17767 126.874 4.45987 129.315 4.90236C131.73 5.37448 134.118 5.91451 136.177 6.65907C138.266 7.37792 140.189 8.20256 141.743 9.14944C142.596 9.60047 143.219 10.1164 143.934 10.6076C144.25 10.8628 144.518 11.1296 144.816 11.3887C145.13 11.6463 145.389 11.9131 145.598 12.189C146.635 13.2624 147.112 14.4151 147.445 15.561C147.644 16.6674 147.588 18.0059 147.611 19.2673L147.668 26.9134L147.697 30.7365L147.701 31.2143L147.701 31.3339L147.701 31.3934C147.708 31.2769 147.701 31.3785 147.703 31.3598L147.699 31.3894L147.673 31.6286L147.57 32.5823C147.542 32.9059 147.385 33.1407 147.308 33.4235C147.205 33.6968 147.154 33.9657 146.954 34.2496C146.414 35.387 145.355 36.4577 144.16 37.4889C142.837 38.4914 141.286 39.4392 139.427 40.2687C135.69 41.9064 130.974 43.1465 125.802 43.6978C124.528 43.8685 123.197 43.928 121.883 44.0196C120.529 44.072 119.281 44.0989 117.823 44.1055L109.07 44.0922L91.5581 44.0664L56.5371 44.0148L54.7784 44.0118L54.2118 44.766L54.21 44.7668L53.3706 45.8742L52.3628 46.9467L51.1776 47.9755C50.7167 48.3 50.2846 48.6331 49.8059 48.9521C49.2823 49.2568 48.8107 49.5789 48.2512 49.8709C47.6685 50.152 47.1574 50.4622 46.5191 50.7227C45.8878 50.9825 45.3159 51.2714 44.6201 51.5035C43.9494 51.7452 43.3021 52.0002 42.565 52.2087C41.8549 52.4307 41.1447 52.6526 40.3718 52.8376C39.6239 53.0375 38.8617 53.2288 38.0565 53.3894C37.2709 53.5657 36.4728 53.7311 35.637 53.8673C34.8191 54.0178 33.9922 54.1603 33.1348 54.2731C32.2864 54.396 31.4416 54.5229 30.5608 54.6121C29.689 54.7068 28.8316 54.8219 27.9364 54.8884C27.0448 54.9603 26.1676 55.0534 25.2652 55.1082L22.5652 55.2763L24.8406 56.9568L26.8808 55.633C27.5704 55.1952 28.1184 54.7091 28.7435 54.2492C29.3865 53.794 29.8502 53.2857 30.382 52.7981C30.6247 52.5487 30.93 52.3136 31.1153 52.05L31.7356 51.2757C31.9262 51.0144 32.1832 50.765 32.3021 50.4918L32.7379 49.684C32.8819 49.4147 33.0421 49.1478 33.0894 48.8673L33.3101 48.0352C33.505 47.4831 33.3596 46.9125 33.3879 46.3527C33.4119 46.0713 33.2533 45.7924 33.1914 45.5122L32.9303 44.6723L32.7019 43.9545L30.8514 43.8182C28.3811 43.636 25.9177 43.3936 23.6023 42.9594C21.2994 42.5283 19.0481 42.0146 17.0576 41.3367C15.0368 40.6822 13.184 39.9212 11.6208 39.0571C10.0041 38.2125 8.69135 37.2625 7.64172 36.2666C6.52944 35.279 5.88068 34.2101 5.38236 33.1395C4.94126 32.0455 4.89434 31.0061 4.90584 29.7824C4.87185 27.4146 4.94891 25.0471 4.99013 22.6794L5.0609 19.128L5.09899 17.3516L5.11531 16.4641L5.11985 16.2421L5.1198 16.228C5.11486 16.3429 5.1181 16.2522 5.11818 16.2741L5.12166 16.246L5.13042 16.1913L5.14614 16.0803L5.20532 15.6371C5.25796 15.3488 5.26215 15.0313 5.35069 14.7665L5.64869 14.0059C5.78469 13.5028 6.25014 12.9704 6.5204 12.4537C7.37982 11.4472 8.29653 10.4401 9.69007 9.55037C10.2882 9.07937 11.1213 8.678 11.8413 8.24496C12.6726 7.85062 13.4609 7.4358 14.3836 7.08166C16.1628 6.34109 18.2021 5.7328 20.3313 5.20771C22.5054 4.72108 24.771 4.29655 27.1646 4.06873C29.5275 3.78373 31.9897 3.72506 34.4306 3.69915Z" fill="#142255" fill-opacity="0.75"/>
</svg>
